<svg xmlns="http://www.w3.org/2000/svg" viewBox="0 0 727.3 100.0" fill="none" role="img" aria-label="Panintel">
  <title>Panintel</title>
  <path d="M11.015333170098398 100.0V-0.06338403106778401H63.1260107279519Q73.85611575824527 -0.06338403106778401 81.0718591984785 3.9517060660759853Q88.28760263871173 7.966796163219755 92.02699355411808 15.20472935267857Q95.76638446952443 22.442662542137384 95.76638446952443 32.38689100081997Q95.76638446952443 42.28042291135204 91.89706696713284 49.6482826877961Q88.02774946474126 57.01614246424016 80.58384486607144 61.07242684322613Q73.13994026740161 65.1287112222121 62.327446673423836 65.1287112222121H32.84974390146684V100.0ZM32.84974390146684 47.363352428024776H59.525915207042644Q66.33916471164359 47.363352428024776 70.03099091198979 43.42751906147503Q73.722817112336 39.49168569492529 73.722817112336 32.450275031887756Q73.722817112336 27.696846386434032 72.11616004521228 24.46768624441964Q70.50950297808856 21.238526102405245 67.39442341529247 19.501942448296276Q64.27934385249635 17.765358794187307 59.525915207042644 17.765358794187307H32.84974390146684Z M97.24300818262574 100.0 135.65721873291727 -0.06338403106778401H162.51128171692784L201.0395728464377 100.0H177.53827954172743L170.34477923423833 80.27010992734148H126.88570161602588L119.69220130853682 100.0ZM133.020838078535 62.84067582110969H164.12725420804483L155.20985772936407 38.13556637777879Q154.62676735035532 36.61445639918914 153.84086408698525 34.30744315722941Q153.05496082361518 32.00042991526968 152.21201727063595 29.287790904587276Q151.3690737176567 26.575151893904874 150.52613016467748 23.821318601380277Q149.68318661169826 21.06748530885568 148.9860156534712 18.91258840310678H148.1620766331086Q147.35082509566328 21.764656267082728 146.17514207133746 25.459667684037903Q144.99945904701167 29.15467910099308 143.86497030452807 32.554986803594204Q142.73048156204447 35.95529450619533 141.93823455721576 38.13556637777879Z M209.99492500683309 100.0V-0.06338403106778401H230.09901575027334L270.3067167854865 53.967178389212826Q271.16234782138304 54.968582019861515 272.4362921089195 56.768576396797556Q273.7102363964559 58.5685707737336 274.885946112541 60.327370868827444Q276.0616558286261 62.08617096392128 276.54335311133383 63.150958625637756L277.2722160850948 63.08757459456997Q277.2405240695609 60.60307005056487 277.2405240695609 58.248492093545Q277.2405240695609 55.89391413652514 277.2405240695609 53.967178389212826V-0.06338403106778401H297.87069159416V100.0H277.9123734454719L236.7349074116254 44.73981940711552Q235.28349851380284 42.73701214581815 233.70534824560406 40.21768375318877Q232.12719797740525 37.6983553605594 231.32226348965926 36.42441107302296L230.59340051589834 36.48779510409074Q230.62509253143222 38.57299092907252 230.62509253143222 40.71522704366345Q230.62509253143222 42.85746315825437 230.62509253143222 44.73981940711552V100.0Z M316.9920095549381 100.0V-0.06338403106778401H338.82642028630653V100.0Z M357.9541086803025 100.0V-0.06338403106778401H378.05819942374274L418.2659004589559 53.967178389212826Q419.12153149485243 54.968582019861515 420.39547578238887 56.768576396797556Q421.6694200699253 58.5685707737336 422.8451297860104 60.327370868827444Q424.0208395020955 62.08617096392128 424.5025367848032 63.150958625637756L425.2313997585642 63.08757459456997Q425.1997077430303 60.60307005056487 425.1997077430303 58.248492093545Q425.1997077430303 55.89391413652514 425.1997077430303 53.967178389212826V-0.06338403106778401H445.8298752676294V100.0H425.8715571189413L384.6940910850948 44.73981940711552Q383.24268218727224 42.73701214581815 381.66453191907345 40.21768375318877Q380.08638165087467 37.6983553605594 379.28144716312863 36.42441107302296L378.55258418936774 36.48779510409074Q378.58427620490164 38.57299092907252 378.58427620490164 40.71522704366345Q378.58427620490164 42.85746315825437 378.58427620490164 44.73981940711552V100.0Z M489.66283325551206 100.0V18.2914355753462H457.51679089604596V-0.06338403106778401H543.725674910031V18.2914355753462H511.4972439868805V100.0Z M555.571050616117 100.0V-0.06338403106778401H635.4609097405703V17.82874282525509H577.4054613474854V40.11910218886661H628.7299954161351V57.78938493645226H577.4054613474854V82.10787314367711H636.3672373246173V100.0Z M652.1232048902151 100.0V-0.06338403106778401H673.9576156215835V81.5310998143677H724.3886163561408V100.0Z" fill="currentColor"/>
</svg>
